<svg xmlns="http://www.w3.org/2000/svg" viewBox="0 0 438.19 102.58"><defs><style>.cls-1{fill:#fff;}.cls-1,.cls-2{stroke:#ffc429;stroke-width:2.25px;}.cls-2,.cls-3{fill:#ffc429;}</style></defs><title>Asset 2</title><g id="Layer_2" data-name="Layer 2"><g id="Layer_1-2" data-name="Layer 1"><path class="cls-1" d="M88.57,74.52a24.79,24.79,0,0,0-7.91-3.24A78.78,78.78,0,0,0,94,26.33v-.39l-.28-.27a62.26,62.26,0,0,0-11.63-8.73A16.19,16.19,0,0,0,84.49,5.79a1.17,1.17,0,0,0-.83-1,1.2,1.2,0,0,0-1.22.37c-1.52,1.79-4.9,5.31-7.76,8.12-1-.42-2.05-.82-3.09-1.19.85-3.44,1.93-7.46,2.55-9.49a1.16,1.16,0,0,0-1.46-1.46A14.34,14.34,0,0,0,63.86,10a62.14,62.14,0,0,0-12.6-1.31,61.23,61.23,0,0,0-42.43,17l-.28.27v.39A78.55,78.55,0,0,0,50.83,97.24l.43.23.43-.23A79.19,79.19,0,0,0,73.53,80.39a48.44,48.44,0,0,0,5.11-1.62c3.09-1.11,6-2.14,9.16-1.9h.1A1.28,1.28,0,0,0,89.1,76,1.26,1.26,0,0,0,88.57,74.52Z"/><path class="cls-2" d="M81.52,17.72a17,17,0,0,0,2.53-5.24A74,74,0,0,1,101.37,24,89.53,89.53,0,0,1,84.89,72.63a22.87,22.87,0,0,0-5.28-1.53A77.66,77.66,0,0,0,93,26.34,60.85,60.85,0,0,0,81.52,17.72ZM71.36,13c.88.31,1.74.64,2.6,1,1.29-1.24,2.74-2.69,4.1-4.09-1.78-.68-3.6-1.28-5.44-1.82C72.18,9.76,71.74,11.48,71.36,13ZM65.75,33.47c1.12.69,1.57,3.12,4.58,2.26a3,3,0,0,1,.86.61h0s0,0,0,0c-.54-2.92-3.33-3.63-5.49-2.89l0,0A0,0,0,0,0,65.75,33.47ZM72.88,2.34a.08.08,0,0,1,.1.1C72,5.79,69.9,13.8,69.29,16.85a6.07,6.07,0,0,0,2-2.14.08.08,0,0,1,.07,0,.07.07,0,0,1,.07,0,4.42,4.42,0,0,1,.47,2.77A153.62,153.62,0,0,0,83.22,6.1a.07.07,0,0,1,.08,0,.09.09,0,0,1,.06.07C84.4,14,79.27,20.41,73,23.3a44.11,44.11,0,0,1,6.61,9.25,17,17,0,0,1-1.46,4.92c.32,3.74,2.7,12.33,4.22,15.23a10.56,10.56,0,0,1-.88,4.37,18.6,18.6,0,0,1-5.14,1.72,8,8,0,0,0,2.23.25.05.05,0,0,1,0,0,0,0,0,0,1,0,0,7.7,7.7,0,0,1-1.38,1.53,10.92,10.92,0,0,1-4.86.35,0,0,0,0,1,0,0,9,9,0,0,0-2.91-5.35c-2.08-2.07-6.47-4.87-8.67-7.07a11.26,11.26,0,0,1-2.66-6.49c0-.5-.1-1-.15-1.48h0a31,31,0,0,0-8.39-18.36c1.44.3,3.68,1.64,5.31,1.33,2.1-.4,2-4.24,4.06-6,0,0,.07,0,.09,0a.08.08,0,0,1,0,.08,7.85,7.85,0,0,0,.47,3.17,10.64,10.64,0,0,1,2.59-6.25.08.08,0,0,1,.09,0,.08.08,0,0,1,0,.08A4.86,4.86,0,0,0,64,18C63.21,11,67.13,4.24,72.88,2.34ZM72.45,51.1a.09.09,0,0,1,0,0,.07.07,0,0,1-.06,0,4.52,4.52,0,0,0-3.62,1.53,8.35,8.35,0,0,1,4.56,5.1,3.77,3.77,0,0,0,1.19-2.11,0,0,0,0,1,0,0s0,0,.06,0a2.26,2.26,0,0,0,.22.44c.52.86,1.39,1.28,2,.94s.59-1.31.07-2.16a2.06,2.06,0,0,0-1.41-1,.07.07,0,0,1,0,0s0,0,0-.06a1.81,1.81,0,0,1,2.08.19,2.27,2.27,0,0,1,.77.91,3.81,3.81,0,0,1,2.66-1.31A32.35,32.35,0,0,1,78.1,45C75.58,45,72.47,47.94,72.45,51.1ZM63.77,32.87c.53,1.51,2.54,4.2,4.61,4.66a4.8,4.8,0,0,0,4.37-1.29,14.48,14.48,0,0,0-4-5.37A11.62,11.62,0,0,0,63.77,32.87ZM88,75.52a.09.09,0,0,1,0,.12.11.11,0,0,1-.1.07c-8.07-.61-14,6.24-24.31,3.54,1.39,1.31,4,1.9,5.12,2.11a.1.1,0,0,1,0,.2c-6.19,1.23-12.93.16-17.38-3.75a156.36,156.36,0,0,1-5.23,15.64c1.68,1,3.4,2,5.17,3A78,78,0,0,0,71.9,80.73a40,40,0,0,0,6.74-2l2.07-.72a90.35,90.35,0,0,1-29.45,23.27A89.94,89.94,0,0,1,1.14,24,75,75,0,0,1,51.26,5.08,77.42,77.42,0,0,1,65.73,6.45a16.75,16.75,0,0,0-2.17,4.43A60.6,60.6,0,0,0,9.47,26.34,78.92,78.92,0,0,0,11,42.62c.82-10.08,4.78-15.63,9.21-20.06,3.44-3.44,11-7.24,13.38-7.24s10,3.8,13.38,7.24c5.2,5.2,9.75,11.92,9.34,25.69a112.51,112.51,0,0,1-2.39,19,26,26,0,0,1-17-15.49c-2.66-7.1-.16-16-5.68-20.16a.06.06,0,0,0-.09,0,.07.07,0,0,0,0,.09c4,4.77,1.09,13.26,3.51,20.38,3.91,11.52,15.85,20.34,29.25,18.2a.11.11,0,0,1,.11.06.11.11,0,0,1,0,.12,15,15,0,0,1-8.41,2.58C65.06,76.75,74.36,67.11,88,75.52ZM38.85,88.31c.9-4.25.94-9.1.27-11.73a19.9,19.9,0,0,1-5.57-5.48A19.9,19.9,0,0,1,28,76.58c-.07.29-.14.62-.19,1A77.63,77.63,0,0,0,38.85,88.31Z"/><path class="cls-3" d="M88.6,74.77a24.56,24.56,0,0,0-7.91-3.24A78.81,78.81,0,0,0,94,26.58v-.39l-.28-.27a61.9,61.9,0,0,0-11.64-8.73A16.15,16.15,0,0,0,84.52,6a1.16,1.16,0,0,0-2-.59c-1.53,1.79-4.9,5.31-7.76,8.12-1-.42-2.06-.83-3.1-1.19.85-3.44,1.93-7.46,2.56-9.49a1.2,1.2,0,0,0-.3-1.18,1.15,1.15,0,0,0-1.17-.28,14.32,14.32,0,0,0-8.82,8.82,61.45,61.45,0,0,0-55,15.67l-.28.27v.39A78.57,78.57,0,0,0,50.86,97.49l.43.22.43-.22A79.24,79.24,0,0,0,73.56,80.64,51.92,51.92,0,0,0,78.68,79c3.08-1.11,5.95-2.14,9.15-1.9h.1a1.3,1.3,0,0,0,1.21-.87A1.28,1.28,0,0,0,88.6,74.77Z"/><path d="M81.56,18a17.17,17.17,0,0,0,2.52-5.24A73.93,73.93,0,0,1,101.4,24.25,89.5,89.5,0,0,1,84.92,72.87a23.26,23.26,0,0,0-5.27-1.52A77.68,77.68,0,0,0,93.07,26.59,60.68,60.68,0,0,0,81.56,18ZM71.39,13.29c.88.31,1.75.63,2.6,1,1.29-1.25,2.74-2.69,4.1-4.1q-2.67-1-5.44-1.81C72.21,10,71.77,11.73,71.39,13.29Zm-5.6,20.43c1.11.69,1.56,3.11,4.57,2.26a2.92,2.92,0,0,1,.86.6s0,0,0,0,0,0,0,0c-.53-2.91-3.32-3.62-5.48-2.88,0,0,0,0,0,0S65.78,33.72,65.79,33.72ZM72.91,2.59a.08.08,0,0,1,.08,0,.08.08,0,0,1,0,.08C72,6,69.93,14.05,69.32,17.1a6.07,6.07,0,0,0,2-2.14.13.13,0,0,1,.07-.05.08.08,0,0,1,.07.05A4.42,4.42,0,0,1,72,17.73,151.87,151.87,0,0,0,83.25,6.34a.08.08,0,0,1,.08,0s.06,0,.06.06c1,7.84-4.09,14.27-10.32,17.17a43.48,43.48,0,0,1,6.61,9.25,17.05,17.05,0,0,1-1.46,4.92C78.55,41.45,80.92,50,82.44,53a10.43,10.43,0,0,1-.88,4.37A18.6,18.6,0,0,1,76.42,59a7.73,7.73,0,0,0,2.23.26.11.11,0,0,1,.06,0,.13.13,0,0,1,0,.06,7.7,7.7,0,0,1-1.38,1.53,11,11,0,0,1-4.85.35s0,0,0,0a9,9,0,0,0-2.91-5.34C67.43,53.79,63,51,60.84,48.79a11.22,11.22,0,0,1-2.65-6.49c0-.5-.1-1-.16-1.49h0a31.05,31.05,0,0,0-8.39-18.36c1.44.31,3.68,1.65,5.31,1.34,2.1-.4,2-4.24,4.07-6a.06.06,0,0,1,.09,0,.07.07,0,0,1,0,.08A8,8,0,0,0,59.62,21a10.58,10.58,0,0,1,2.6-6.25.06.06,0,0,1,.09,0,.06.06,0,0,1,0,.07A4.85,4.85,0,0,0,64,18.29C63.24,11.2,67.17,4.49,72.91,2.59Zm-.43,48.76a.05.05,0,0,1,0,0l-.06,0a4.51,4.51,0,0,0-3.62,1.52,8.37,8.37,0,0,1,4.56,5.11,3.71,3.71,0,0,0,1.19-2.11,0,0,0,0,1,0,0,.05.05,0,0,1,.05,0,3.11,3.11,0,0,0,.22.45c.52.86,1.39,1.28,2,.94s.59-1.31.07-2.16a2,2,0,0,0-1.41-1,.1.1,0,0,1,0,0,0,0,0,0,1,0-.06,1.81,1.81,0,0,1,2.09.19,2.32,2.32,0,0,1,.76.91,3.83,3.83,0,0,1,2.66-1.31,32.72,32.72,0,0,1-2.8-8.51C75.61,45.29,72.5,48.19,72.48,51.35ZM63.81,33.12c.52,1.51,2.54,4.19,4.6,4.65a4.78,4.78,0,0,0,4.37-1.28,14.29,14.29,0,0,0-4-5.37A11.46,11.46,0,0,0,63.81,33.12ZM88,75.76a.12.12,0,0,1,0,.12.1.1,0,0,1-.11.07c-8.07-.6-14,6.25-24.31,3.55,1.4,1.3,4,1.9,5.12,2.1a.11.11,0,0,1,.08.11.1.1,0,0,1-.08.1C62.54,83,55.8,82,51.36,78.06A158.89,158.89,0,0,1,46.12,93.7q2.52,1.58,5.17,3A78.2,78.2,0,0,0,71.93,81a41,41,0,0,0,6.75-2c.7-.25,1.38-.5,2.06-.73a90.38,90.38,0,0,1-29.45,23.28A90,90,0,0,1,1.18,24.25,74.91,74.91,0,0,1,51.29,5.33,76.59,76.59,0,0,1,65.76,6.7a16.28,16.28,0,0,0-2.16,4.43A60.5,60.5,0,0,0,9.5,26.59,78.23,78.23,0,0,0,11,42.87c.82-10.08,4.77-15.63,9.2-20.06,3.44-3.44,11-7.24,13.38-7.24s10,3.8,13.39,7.24c5.19,5.19,9.74,11.92,9.34,25.68a113.33,113.33,0,0,1-2.4,19A26,26,0,0,1,36.89,52c-2.66-7.09-.16-16-5.68-20.15a.07.07,0,0,0-.09,0,.09.09,0,0,0,0,.1c4,4.77,1.1,13.25,3.51,20.38,3.92,11.52,15.85,20.34,29.25,18.2a.1.1,0,0,1,.08.18,15,15,0,0,1-8.41,2.57C65.09,77,74.39,67.36,88,75.76Zm-49.1,12.8c.9-4.25.94-9.11.28-11.73a20.19,20.19,0,0,1-5.58-5.48A19.9,19.9,0,0,1,28,76.83c-.07.29-.14.62-.19,1A78.71,78.71,0,0,0,38.88,88.56Z"/><path d="M134,56.57a8.23,8.23,0,0,0,3.86-7.07c0-5.16-4.28-9.37-13.18-9.37h-15V75.74h17.15c9.44,0,14.18-4.57,14.18-10.16C141.06,61.67,138.75,58.23,134,56.57Zm-14.66-9h4.93c2.61,0,3.92,1.12,3.92,3s-1.31,3-3.92,3h-4.93Zm7.12,20.71h-7.12V60.78h7.12c3.21,0,4.87,1.54,4.87,3.74S129.67,68.26,126.46,68.26Z"/><path d="M266.2,65.53c0,6.29-5.58,10.79-15.13,10.79a27.72,27.72,0,0,1-13.95-3.77,1.47,1.47,0,0,1-.77-1.3V62.74c5.16,3.62,11.52,5.46,14.66,5.46,2.67,0,4.75-.6,4.75-2.67s-1.54-2.56-5.7-3.8c-6.7-2-13.41-4.21-13.41-11.75,0-5.82,5.34-10.44,14.42-10.44A31.28,31.28,0,0,1,262.76,42v8.36a30.43,30.43,0,0,0-11.63-2.61c-2.85,0-4.1.72-4.1,2.2s1.61,2.08,4.87,3.14C258.61,55.26,266.2,57.82,266.2,65.53Z"/><path d="M221.79,40.13H210.64L196.8,75.74h9.62l3.79-9.9.94,2.45a2.37,2.37,0,0,0,2,1.39h10.5l1.78,4.66a2.36,2.36,0,0,0,2,1.4h8.12Zm-10.15,22,4.57-11.87,4.58,11.87Z"/><path d="M298.72,65.53c0,6.29-5.57,10.79-15.13,10.79a27.72,27.72,0,0,1-13.95-3.77,1.48,1.48,0,0,1-.76-1.3V62.74c5.16,3.62,11.51,5.46,14.65,5.46,2.67,0,4.75-.6,4.75-2.67s-1.54-2.56-5.69-3.8c-6.71-2-13.42-4.21-13.42-11.75,0-5.82,5.34-10.44,14.42-10.44A31.29,31.29,0,0,1,295.29,42v8.36a30.52,30.52,0,0,0-11.64-2.61c-2.85,0-4.09.72-4.09,2.2s1.6,2.08,4.87,3.14C291.13,55.26,298.72,57.82,298.72,65.53Z"/><path d="M144,40.13h9.61v34.1a1.5,1.5,0,0,1-1.49,1.51H144Z"/><path d="M174.15,55.91H189V74.07c-4.27,0-9.2,2.25-15.2,2.25-12.75,0-17.09-7.4-17.09-18.39s5.22-18.39,17.93-18.39A37.07,37.07,0,0,1,187,41.61V50.1a31,31,0,0,0-11.39-2.26c-6.35,0-9.26,3.62-9.26,10.09s1.72,10.33,9.32,10.33a11.08,11.08,0,0,0,3.73-.59V63.39h-3.72a1.5,1.5,0,0,1-1.5-1.5Z"/><path d="M344.12,40.13,330.29,75.74h9.62l3.78-9.9.94,2.45a2.38,2.38,0,0,0,2,1.39h10.51L359,74.34a2.34,2.34,0,0,0,2,1.4h8.12L355.28,40.13Zm1,22,4.57-11.87,4.57,11.87Z"/><path d="M393.16,40.13V58.08L381.47,40.13h-9.62V75.74H380a1.51,1.51,0,0,0,1.5-1.51V56.89l12.58,18.85h7.23a1.5,1.5,0,0,0,1.49-1.51V40.13Z"/><path d="M335.83,47.92V40.13h-28.2V75.74h8.12a1.51,1.51,0,0,0,1.5-1.51V62.9h13a2,2,0,0,0,2.15-2.1l0-5.55H317.25V47.92Z"/><path d="M435.2,65.53c0,6.29-5.58,10.79-15.13,10.79a27.72,27.72,0,0,1-13.95-3.77,1.47,1.47,0,0,1-.77-1.3V62.74c5.16,3.62,11.52,5.46,14.66,5.46,2.67,0,4.75-.6,4.75-2.67s-1.54-2.56-5.7-3.8c-6.71-2-13.41-4.21-13.41-11.75,0-5.82,5.34-10.44,14.42-10.44A31.28,31.28,0,0,1,431.76,42v8.36a30.43,30.43,0,0,0-11.63-2.61c-2.85,0-4.1.72-4.1,2.2s1.61,2.08,4.87,3.14C427.61,55.26,435.2,57.82,435.2,65.53Z"/><path d="M435.62,39.54a2.57,2.57,0,1,0,2.57,2.56A2.57,2.57,0,0,0,435.62,39.54Zm0,4.71a2.15,2.15,0,1,1,2.15-2.15A2.15,2.15,0,0,1,435.62,44.25Z"/><path d="M436.63,42.29a1.14,1.14,0,0,0,.14-.54,1.09,1.09,0,0,0-.3-.76,1.22,1.22,0,0,0-.92-.32h-.88v2.84h.53v-.7h.53l.46.71h.58l-.56-.84A1,1,0,0,0,436.63,42.29Zm-.55-.06a.72.72,0,0,1-.53.16h-.35V41.12h.35a.59.59,0,0,1,.69.64A.65.65,0,0,1,436.08,42.23Z"/></g></g></svg>